PathFileType	4	(X/Y/Z)	C:\Users\86182\Documents\cortex\Trimmed_M3_L2.trc
DataRate	CameraRate	NumFrames	NumMarkers	Units	OrigDataRate	OrigDataStartFrame	OrigNumFrames
100.00	100.00	       98	2	mm	100.00	541	       901
Frame#	Time	gripper			box			
		X1	Y1	Z1	X2	Y2	Z2	

541	5.400	273.39273	149.77794	292.89645	275.08191	147.70428	157.08157	
542	5.410	273.40140	149.77155	292.89740	275.04483	147.68968	157.08298	
543	5.420	273.42865	149.76784	292.88779	275.01981	147.69737	157.10184	
544	5.430	273.39743	149.76991	292.89639	275.03873	147.71974	157.10945	
545	5.440	273.39194	149.78008	292.89981	274.98187	147.68585	157.09570	
546	5.450	273.40222	149.76917	292.89737	275.09103	147.69409	157.07133	
547	5.460	273.40506	149.76468	292.89621	275.07678	147.72102	157.09703	
548	5.470	273.39636	149.79190	292.89407	275.01767	147.71278	157.10121	
549	5.480	273.41806	149.78510	292.88690	274.99338	147.72314	157.11154	
550	5.490	273.37885	149.76735	292.90356	275.01691	147.68782	157.08430	
551	5.500	273.35690	149.77907	292.90955	275.00082	147.68086	157.07820	
552	5.510	273.39359	149.78308	292.89420	275.01056	147.71277	157.10114	
553	5.520	273.41010	149.80260	292.88373	274.96338	147.69318	157.10532	
554	5.530	273.40619	149.80083	292.88605	275.02896	147.70206	157.09026	
555	5.540	273.35410	149.79001	292.90399	274.95804	147.70284	157.11325	
556	5.550	273.43066	149.78047	292.88550	275.01205	147.66687	157.08609	
557	5.560	273.34174	149.77473	292.91113	275.05524	147.69331	157.07678	
558	5.570	273.39081	149.76649	292.89993	275.04095	147.70142	157.09280	
559	5.580	273.35812	149.76550	292.91409	275.03220	147.70380	157.08607	
560	5.590	273.41602	149.77248	292.88922	275.11438	147.68790	157.06212	
561	5.600	273.40689	149.78336	292.89386	275.06564	147.68861	157.07991	
562	5.610	273.41565	149.77719	292.89142	275.14078	147.70163	157.06416	
563	5.620	273.41833	149.76401	292.89142	275.07385	147.66963	157.06023	
564	5.630	273.40668	149.76747	292.89395	275.14627	147.69325	157.05956	
565	5.640	273.42035	149.77689	292.88574	275.08423	147.69092	157.06946	
566	5.650	273.42865	149.76784	292.88779	275.08890	147.70032	157.06587	
567	5.660	273.42865	149.76784	292.88779	275.06134	147.67941	157.06795	
568	5.670	273.36731	149.77664	292.90930	275.08905	147.70309	157.07283	
569	5.680	273.43402	149.77104	292.88541	275.10315	147.68207	157.06125	
570	5.690	273.41745	149.78883	292.88470	275.06000	147.72270	157.09140	
571	5.700	273.41617	149.78836	292.88916	274.99850	147.71014	157.10228	
572	5.710	273.39441	149.77304	292.89978	275.02344	147.68468	157.08330	
573	5.720	273.42603	149.76627	292.88898	275.07468	147.67574	157.06284	
574	5.730	273.40732	149.77145	292.89056	275.01639	147.68965	157.08260	
575	5.740	273.39340	149.78912	292.89417	275.06567	147.68526	157.06847	
576	5.750	273.40240	149.77782	292.89621	275.07098	147.67381	157.06255	
577	5.760	273.41003	149.78754	292.89154	275.05695	147.70050	157.08273	
578	5.770	273.42059	149.76303	292.89136	275.11243	147.67566	157.05695	
579	5.780	273.43149	149.77809	292.88544	275.08301	147.68575	157.06601	
580	5.790	273.42966	149.77419	292.88663	275.11697	147.70474	157.07207	
581	5.800	273.43674	149.77266	292.88422	275.11917	147.70203	157.06850	
582	5.810	273.45953	149.79562	292.87030	275.04367	147.67728	157.07257	
583	5.820	273.44473	149.77745	292.88068	275.11075	147.70868	157.07198	
584	5.830	273.40881	149.79475	292.89044	275.13699	147.69966	157.06387	
585	5.840	273.44742	149.77904	292.87949	275.03931	147.66872	157.06517	
586	5.850	273.39645	149.78560	292.89743	275.03961	147.68903	157.08229	
587	5.860	273.42960	149.78166	292.88440	275.01102	147.67159	157.08649	
588	5.870	273.41495	149.77367	292.88812	275.03214	147.69724	157.08331	
589	5.880	273.39127	149.77632	292.89984	275.01999	147.69394	157.08534	
590	5.890	273.36731	149.77664	292.90930	275.01450	147.69962	157.09285	
591	5.900	273.43777	149.78758	292.88196	275.07755	147.67155	157.06052	
592	5.910	273.36694	149.76797	292.91052	274.97900	147.69824	157.10390	
593	5.920	273.32700	149.77217	292.92474	274.97113	147.69949	157.10794	
594	5.930	273.36163	149.77834	292.91052	275.07938	147.71259	157.08931	
595	5.940	273.38202	149.77153	292.90121	275.04858	147.69122	157.08372	
596	5.950	273.41913	149.77644	292.89026	275.01154	147.68068	157.08597	
597	5.960	273.40613	149.78572	292.89386	275.09970	147.68236	157.06332	
598	5.970	273.41107	149.77913	292.89154	275.07013	147.66771	157.05994	
599	5.980	273.39160	149.78522	292.89536	275.11838	147.71265	157.07256	
600	5.990	273.43149	149.77809	292.88544	275.12494	147.71037	157.07053	
601	6.000	273.44495	149.79469	292.87845	275.09756	147.69046	157.06587	
602	6.010	273.39404	149.79262	292.89746	275.11163	147.69810	157.06792	
603	6.020	273.37698	149.77676	292.90573	275.08798	147.69815	157.07404	
604	6.030	273.37772	149.77486	292.89911	275.03290	147.67552	157.06201	
605	6.040	273.36356	149.78252	292.90604	275.07880	147.70209	157.08105	
606	6.050	273.37738	149.76573	292.90695	275.04263	147.69966	157.08847	
607	6.060	273.40610	149.76372	292.89395	275.04852	147.68843	157.07681	
608	6.070	273.37042	149.76744	292.90601	274.94379	147.70801	157.11732	
609	6.080	273.34769	149.76775	292.91766	275.04291	147.69150	157.07726	
610	6.090	273.40714	149.75499	292.89734	275.05106	147.70781	157.08368	
611	6.100	273.40512	149.77943	292.89502	275.09372	147.69447	157.06908	
612	6.110	273.41644	149.76756	292.89032	275.11026	147.70560	157.07066	
613	6.120	273.44122	149.77821	292.88187	275.08640	147.68602	157.06844	
614	6.130	273.43936	149.77423	292.88306	275.13812	147.68625	157.05771	
615	6.140	273.44473	149.77745	292.88068	275.07257	147.68661	157.07227	
616	6.150	273.46069	149.78697	292.87360	275.12061	147.70529	157.06892	
617	6.160	273.45807	149.78540	292.87476	275.09357	147.71185	157.08031	
618	6.170	273.45728	149.79660	292.87036	275.07440	147.69841	157.07300	
619	6.180	273.46603	149.79016	292.87125	275.09644	147.68349	157.06433	
620	6.190	273.45004	149.78062	292.87833	275.11383	147.67790	157.05347	
621	6.200	273.44742	149.77904	292.87949	275.13318	147.71146	157.06873	
622	6.210	273.43936	149.77423	292.88306	275.12869	147.71233	157.07083	
623	6.220	273.42352	149.79686	292.88342	275.14532	147.71730	157.08727	
624	6.230	273.43936	149.77423	292.88306	275.09518	147.71840	157.08725	
625	6.240	273.42633	149.78357	292.88669	275.09378	147.71268	157.07922	
626	6.250	273.42441	149.79454	292.88339	275.07230	147.72801	157.09232	
627	6.260	273.46866	149.79173	292.87006	275.04504	147.73657	157.10161	
628	6.270	273.41867	149.78156	292.88577	275.02921	147.73845	157.10538	
629	6.280	273.43527	149.79510	292.87534	275.08835	147.72609	157.08336	
630	6.290	273.40265	149.79413	292.88950	275.01999	147.71902	157.09262	
631	6.300	273.40063	149.79646	292.88733	275.07974	147.72923	157.08578	
632	6.310	273.38049	149.78391	292.89563	275.08350	147.71893	157.07935	
633	6.320	273.42175	149.77802	292.88907	275.05453	147.72021	157.08775	
634	6.330	273.43942	149.79060	292.87634	275.09842	147.71948	157.07870	
635	6.340	273.41727	149.77248	292.89142	275.11276	147.71561	157.07820	
636	6.350	273.42795	149.77885	292.88666	275.10831	147.71724	157.07945	
637	6.360	273.41354	149.76454	292.89377	275.11215	147.69717	157.07365	
638	6.370	273.40982	149.75659	292.89615	275.15811	147.70224	157.06177	
